<svg width="29" height="29" viewBox="0 0 29 29" fill="none" xmlns="http://www.w3.org/2000/svg">
<path d="M14.5 20.5002C17.8137 20.5002 20.5 17.8138 20.5 14.5002C20.5 11.1865 17.8137 8.50019 14.5 8.50019C11.1863 8.50019 8.5 11.1865 8.5 14.5002C8.5 17.8138 11.1863 20.5002 14.5 20.5002Z" stroke="black" stroke-linecap="round" stroke-linejoin="round"/>
<path d="M1 20.5V8.5C1 4.35787 4.35787 1 8.5 1H20.5C24.6421 1 28 4.35787 28 8.5V20.5C28 24.6421 24.6421 28 20.5 28H8.5C4.35787 28 1 24.6421 1 20.5Z" stroke="black"/>
<path d="M22.7501 6.26524L22.7653 6.24835" stroke="black" stroke-linecap="round" stroke-linejoin="round"/>
</svg>
