<svg width="18" height="18" viewBox="0 0 18 18" fill="none" xmlns="http://www.w3.org/2000/svg">
<path d="M9.00001 12.5554C10.9637 12.5554 12.5556 10.9635 12.5556 8.99989C12.5556 7.03621 10.9637 5.44434 9.00001 5.44434C7.03633 5.44434 5.44446 7.03621 5.44446 8.99989C5.44446 10.9635 7.03633 12.5554 9.00001 12.5554Z" stroke="white" stroke-linecap="round" stroke-linejoin="round"/>
<path d="M1 12.5556V5.44444C1 2.98985 2.98985 1 5.44444 1H12.5556C15.0101 1 17 2.98985 17 5.44444V12.5556C17 15.0101 15.0101 17 12.5556 17H5.44444C2.98985 17 1 15.0101 1 12.5556Z" stroke="white"/>
<path d="M13.8889 4.12075L13.8983 4.11035" stroke="white" stroke-linecap="round" stroke-linejoin="round"/>
</svg>
